<?xml version="1.0" encoding="UTF-8" standalone="no"?>
<svg
   height="44"
   viewBox="0 96 880 880"
   width="44"
   version="1.1"
   id="svg141"
   sodipodi:docname="about.svg"
   inkscape:version="1.2.2 (b0a8486, 2022-12-01)"
   xmlns:inkscape="http://www.inkscape.org/namespaces/inkscape"
   xmlns:sodipodi="http://sodipodi.sourceforge.net/DTD/sodipodi-0.dtd"
   xmlns="http://www.w3.org/2000/svg"
   xmlns:svg="http://www.w3.org/2000/svg">
  <defs
     id="defs145" />
  <sodipodi:namedview
     id="namedview143"
     pagecolor="#ffffff"
     bordercolor="#000000"
     borderopacity="0.25"
     inkscape:showpageshadow="2"
     inkscape:pageopacity="0.0"
     inkscape:pagecheckerboard="0"
     inkscape:deskcolor="#d1d1d1"
     showgrid="false"
     inkscape:zoom="12.583333"
     inkscape:cx="22.013245"
     inkscape:cy="22.013245"
     inkscape:window-width="1920"
     inkscape:window-height="928"
     inkscape:window-x="0"
     inkscape:window-y="25"
     inkscape:window-maximized="1"
     inkscape:current-layer="svg141" />
  <path
     d="m 640,976 q 100,0 170,-70 70,-70 70,-170 h -60 q 0,75 -52.5,127.5 Q 715,916 640,916 Z M 0,336 H 60 Q 60,261 112.5,208.5 165,156 240,156 V 96 Q 140,96 70,166 0,236 0,336 Z M 101,875 Q 4,778 4,642 4,506 101,409 L 249,260 q 26,-26 63.5,-26 37.5,0 63.5,26 4,3 9,10 l 10,14 116,-116 q 26,-26 63.5,-26 37.5,0 63.5,26 6,7 10.5,14 4.5,7 6.5,12 25,-25 61.5,-24 36.5,1 62.5,27 20,20 24,49.5 4,29.5 -9,58.5 8,3 15,8 7,5 13,11 26,26 26,63.5 0,37.5 -26,63.5 l -25,25 q 7,3 13.5,8 6.5,5 11.5,10 26,26 26.5,63.5 Q 849,595 822,621 L 567,875 q -97,97 -233,97 -136,0 -233,-97 z m 42,-42 q 40,40 89.5,59.5 Q 282,912 334,912 386,912 435.5,892.5 485,873 525,833 L 779,578 q 9,-9 9,-21.5 0,-12.5 -9,-20.5 -9,-9 -21,-9 -12,0 -21,9 L 596,677 553,635 779,409 q 9,-9 9,-21.5 0,-12.5 -9,-21.5 -9,-9 -21,-9 -12,0 -21,9 L 539,564 497,522 737,281 q 9,-9 8.5,-21.5 Q 745,247 737,239 q -9,-9 -21,-9 -12,0 -21,9 L 454,479 412,437 596,253 q 9,-9 8.5,-21.5 Q 604,219 596,211 q -9,-9 -21.5,-9 -12.5,0 -21.5,9 L 289,475 q 21,52 13,106 -8,54 -46,96 l -42,-42 q 32,-37 32,-85 0,-48 -32,-85 L 334,345 q 9,-9 8.5,-21.5 Q 342,311 334,303 q -9,-9 -21,-9 -12,0 -21,9 L 143,451 Q 103,491 83.5,540.5 64,590 64,642 64,694 83.5,743.5 103,793 143,833 Z"
     id="path139" />
</svg>
