<?xml version="1.0" encoding="UTF-8" standalone="no"?>
<svg
   width="62.805801"
   height="78.479698"
   viewBox="0 0 62.805801 78.479698"
   fill="none"
   version="1.1"
   id="svg183"
   sodipodi:docname="astro.svg"
   inkscape:version="1.2.2 (b0a8486, 2022-12-01)"
   xmlns:inkscape="http://www.inkscape.org/namespaces/inkscape"
   xmlns:sodipodi="http://sodipodi.sourceforge.net/DTD/sodipodi-0.dtd"
   xmlns="http://www.w3.org/2000/svg"
   xmlns:svg="http://www.w3.org/2000/svg">
  <defs
     id="defs187" />
  <sodipodi:namedview
     id="namedview185"
     pagecolor="#ffffff"
     bordercolor="#000000"
     borderopacity="0.25"
     inkscape:showpageshadow="2"
     inkscape:pageopacity="0.0"
     inkscape:pagecheckerboard="0"
     inkscape:deskcolor="#d1d1d1"
     showgrid="false"
     inkscape:zoom="7.9493671"
     inkscape:cx="31.449045"
     inkscape:cy="39.374204"
     inkscape:window-width="1920"
     inkscape:window-height="928"
     inkscape:window-x="0"
     inkscape:window-y="25"
     inkscape:window-maximized="1"
     inkscape:current-layer="svg183" />
  <path
     d="M 19.4924,65.9282 C 15.6165,62.432 14.4851,55.0859 16.0999,49.7638 c 2.7999,3.3555 6.6794,4.4184 10.6978,5.0184 6.2036,0.9259 12.296,0.5796 18.0588,-2.2185 0.6593,-0.3203 1.2685,-0.7463 1.9889,-1.1777 0.5407,1.5481 0.6814,3.111 0.4926,4.7017 -0.4593,3.874 -2.4129,6.8665 -5.5203,9.135 -1.2425,0.9073 -2.5573,1.7184 -3.8406,2.574 -3.9425,2.6295 -5.0092,5.7128 -3.5277,10.1979 0.0352,0.1092 0.0667,0.2185 0.1463,0.4851 -2.0129,-0.8888 -3.4833,-2.1832 -4.6036,-3.8851 -1.1833,-1.7962 -1.7463,-3.7832 -1.7759,-5.9331 -0.0148,-1.0463 -0.0148,-2.1018 -0.1574,-3.1333 -0.3481,-2.5147 -1.5444,-3.6406 -3.798,-3.7055 -2.3129,-0.0666 -4.1425,1.3445 -4.6277,3.5666 -0.037,0.1704 -0.0907,0.3389 -0.1444,0.537 z"
     fill="#ffffff"
     id="path179" />
  <path
     d="m 0,51.3932 c 0,0 10.5979,-5.1499 21.2254,-5.1499 l 8.0128,-24.7364 c 0.2999,-1.1963 1.1759,-2.0092 2.1647,-2.0092 0.9889,0 1.8648,0.8129 2.1648,2.0092 l 8.0127,24.7364 c 12.5868,0 21.2254,5.1499 21.2254,5.1499 0,0 -18.0014,-48.91734 -18.0366,-49.01548 C 44.2526,0.931458 43.3804,0 42.2045,0 H 20.6032 C 19.4273,0 18.5903,0.931458 18.0384,2.37772 17.9995,2.47401 0,51.3932 0,51.3932 Z"
     fill="#ffffff"
     id="path181" />
</svg>
