<?xml version="1.0" encoding="UTF-8" standalone="no"?>
<svg
   height="36.049999"
   viewBox="0 96 720 720.99998"
   width="36"
   version="1.1"
   id="svg341"
   sodipodi:docname="contact_hover.svg"
   inkscape:version="1.2.2 (b0a8486, 2022-12-01)"
   xmlns:inkscape="http://www.inkscape.org/namespaces/inkscape"
   xmlns:sodipodi="http://sodipodi.sourceforge.net/DTD/sodipodi-0.dtd"
   xmlns="http://www.w3.org/2000/svg"
   xmlns:svg="http://www.w3.org/2000/svg">
  <defs
     id="defs345" />
  <sodipodi:namedview
     id="namedview343"
     pagecolor="#ffffff"
     bordercolor="#000000"
     borderopacity="0.25"
     inkscape:showpageshadow="2"
     inkscape:pageopacity="0.0"
     inkscape:pagecheckerboard="0"
     inkscape:deskcolor="#d1d1d1"
     showgrid="false"
     inkscape:zoom="13.083333"
     inkscape:cx="17.961783"
     inkscape:cy="18.038217"
     inkscape:window-width="1920"
     inkscape:window-height="928"
     inkscape:window-x="0"
     inkscape:window-y="25"
     inkscape:window-maximized="1"
     inkscape:current-layer="svg341" />
  <path
     d="M 656,450 Q 651,329 567,245 483,161 362,156 V 96 q 72,2 135.5,30.5 Q 561,155 609,203 657,251 685.5,314.5 714,378 716,450 Z m -169,0 Q 482,400 447,365.5 412,331 362,326 v -60 q 75,5 127.5,57 52.5,52 57.5,127 z M 675,817 Q 553,817 432.5,757 312,697 216,601 120,505 60,384.5 0,264 0,142 0,122.714 12.857,109.857 25.714,97 45,97 h 140 q 13.611,0 24.306,9.5 Q 220,116 223,132 l 27,126 q 2,14 -0.5,25.5 Q 247,295 239,303 L 139,404 q 56,93 125.5,162 69.5,69 157.5,117 l 95,-98 q 10,-11 23,-15.5 13,-4.5 26,-1.5 l 119,26 q 15.312,3.375 25.156,15.188 Q 720,621 720,637 v 135 q 0,19.286 -12.857,32.143 Q 694.286,817 675,817 Z M 109,349 190,267 167,157 H 60 q 0,39 12,85.5 12,46.5 37,106.5 z m 369,363 q 41,19 89,31 48,12 93,14 V 650 L 557,629 Z M 109,349 Z m 369,363 z"
     id="path339" />
</svg>
