<?xml version="1.0" encoding="UTF-8" standalone="no"?>
<svg
   height="36"
   viewBox="0 96 720 720"
   width="36"
   version="1.1"
   id="svg301"
   sodipodi:docname="contact.svg"
   inkscape:version="1.2.2 (b0a8486, 2022-12-01)"
   xmlns:inkscape="http://www.inkscape.org/namespaces/inkscape"
   xmlns:sodipodi="http://sodipodi.sourceforge.net/DTD/sodipodi-0.dtd"
   xmlns="http://www.w3.org/2000/svg"
   xmlns:svg="http://www.w3.org/2000/svg">
  <defs
     id="defs305" />
  <sodipodi:namedview
     id="namedview303"
     pagecolor="#ffffff"
     bordercolor="#000000"
     borderopacity="0.25"
     inkscape:showpageshadow="2"
     inkscape:pageopacity="0.0"
     inkscape:pagecheckerboard="0"
     inkscape:deskcolor="#d1d1d1"
     showgrid="false"
     inkscape:zoom="13.083333"
     inkscape:cx="17.961783"
     inkscape:cy="17.961783"
     inkscape:window-width="1920"
     inkscape:window-height="928"
     inkscape:window-x="0"
     inkscape:window-y="25"
     inkscape:window-maximized="1"
     inkscape:current-layer="svg301" />
  <path
     d="M 675,816 Q 553,816 432.5,756 312,696 216,600 120,504 60,383.5 0,263 0,141 0,121.714 12.857,108.857 25.714,96 45,96 h 140 q 13.611,0 24.306,9.5 Q 220,115 223,131 l 27,126 q 2,14 -0.5,25.5 Q 247,294 239,302 L 139,403 q 56,93 125.5,162 69.5,69 157.5,117 l 95,-98 q 10,-11 23,-15.5 13,-4.5 26,-1.5 l 119,26 q 15.312,3.375 25.156,15.188 Q 720,620 720,636 v 135 q 0,19.286 -12.857,32.143 Q 694.286,816 675,816 Z M 109,348 190,266 167,156 H 60 q 0,39 12,85.5 12,46.5 37,106.5 z m 369,363 q 41,19 89,31 48,12 93,14 V 649 L 557,628 Z M 109,348 Z m 369,363 z"
     id="path299" />
</svg>
