<?xml version="1.0" encoding="UTF-8" standalone="no"?>
<svg
   viewBox="0 0 362.73401 411.38"
   version="1.1"
   id="svg818"
   sodipodi:docname="html.svg"
   width="362.73401"
   height="411.38"
   inkscape:version="1.2.2 (b0a8486, 2022-12-01)"
   xmlns:inkscape="http://www.inkscape.org/namespaces/inkscape"
   xmlns:sodipodi="http://sodipodi.sourceforge.net/DTD/sodipodi-0.dtd"
   xmlns="http://www.w3.org/2000/svg"
   xmlns:svg="http://www.w3.org/2000/svg">
  <defs
     id="defs822" />
  <sodipodi:namedview
     id="namedview820"
     pagecolor="#ffffff"
     bordercolor="#000000"
     borderopacity="0.25"
     inkscape:showpageshadow="2"
     inkscape:pageopacity="0.0"
     inkscape:pagecheckerboard="0"
     inkscape:deskcolor="#d1d1d1"
     showgrid="false"
     inkscape:zoom="0.61328125"
     inkscape:cx="6.522293"
     inkscape:cy="229.09554"
     inkscape:window-width="1920"
     inkscape:window-height="927"
     inkscape:window-x="0"
     inkscape:window-y="25"
     inkscape:window-maximized="1"
     inkscape:current-layer="svg818" />
  <title
     id="title796">HTML5 Logo</title>
  <polygon
     fill="#e44d26"
     points="255.778,512 107.644,470.877 74.633,100.62 437.367,100.62 404.321,470.819 "
     id="polygon798"
     transform="translate(-74.633,-100.62)" />
  <polygon
     fill="#f16529"
     points="256,480.523 376.03,447.246 404.27,130.894 256,130.894 "
     id="polygon800"
     transform="translate(-74.633,-100.62)" />
  <polygon
     fill="#ebebeb"
     points="256,176.305 255.843,176.305 142.132,176.305 143.219,188.488 154.38,313.627 256,313.627 256,268.217 195.91,268.217 191.76,221.716 256,221.716 "
     id="polygon802"
     transform="translate(-74.633,-100.62)" />
  <polygon
     fill="#ebebeb"
     points="177.419,336.333 156.409,336.333 162.771,407.634 255.791,433.457 256,433.399 256,386.153 255.801,386.206 205.227,372.55 201.994,336.333 "
     id="polygon804"
     transform="translate(-74.633,-100.62)" />
  <path
     d="m 33.749,-100.62 h 23.077 v 22.8 h 21.11 v -22.8 h 23.078 v 69.044 H 77.937 v -23.12 h -21.11 v 23.12 H 33.75 v -69.044 z"
     id="path806" />
  <path
     d="m 131.361,-77.724 h -20.316 v -22.896 h 63.72 v 22.896 H 154.44 v 46.148 h -23.078 v -46.148 z"
     id="path808" />
  <path
     d="m 184.878,-100.62 h 24.063 l 14.802,24.26 14.787,-24.26 h 24.072 v 69.044 H 239.62 v -34.222 l -15.877,24.549 h -0.397 l -15.888,-24.549 v 34.222 h -22.58 z"
     id="path810" />
  <path
     d="m 274.087,-100.62 h 23.084 v 46.222 h 32.453 v 22.822 h -55.537 z"
     id="path812" />
  <polygon
     fill="#ffffff"
     points="255.843,386.191 255.843,433.435 348.937,407.634 349.62,399.962 360.291,280.411 361.399,268.217 349.162,268.217 255.843,268.217 255.843,313.627 311.761,313.627 306.49,372.521 "
     id="polygon814"
     transform="translate(-74.633,-100.62)" />
  <polygon
     fill="#ffffff"
     points="365.385,221.716 365.385,221.716 365.531,221.716 366.442,211.509 368.511,188.488 369.597,176.305 255.843,176.305 255.843,204.509 255.843,221.605 255.843,221.716 "
     id="polygon816"
     transform="translate(-74.633,-100.62)" />
</svg>
