<?xml version="1.0" encoding="UTF-8" standalone="no"?>
<svg
   width="28.74889"
   height="64.004807"
   viewBox="0 0 14.374445 32.002403"
   version="1.1"
   id="svg1218"
   sodipodi:docname="mongodb.svg"
   inkscape:version="1.2.2 (b0a8486, 2022-12-01)"
   xmlns:inkscape="http://www.inkscape.org/namespaces/inkscape"
   xmlns:sodipodi="http://sodipodi.sourceforge.net/DTD/sodipodi-0.dtd"
   xmlns="http://www.w3.org/2000/svg"
   xmlns:svg="http://www.w3.org/2000/svg">
  <defs
     id="defs1222" />
  <sodipodi:namedview
     id="namedview1220"
     pagecolor="#ffffff"
     bordercolor="#000000"
     borderopacity="0.25"
     inkscape:showpageshadow="2"
     inkscape:pageopacity="0.0"
     inkscape:pagecheckerboard="0"
     inkscape:deskcolor="#d1d1d1"
     showgrid="false"
     inkscape:zoom="9.8125"
     inkscape:cx="14.369427"
     inkscape:cy="32"
     inkscape:window-width="1920"
     inkscape:window-height="928"
     inkscape:window-x="0"
     inkscape:window-y="25"
     inkscape:window-maximized="1"
     inkscape:current-layer="svg1218" />
  <path
     d="m 7.0870767,0.08740301 0.854,1.60399999 c 0.192,0.296 0.4,0.558 0.645,0.802 0.715,0.715 1.394,1.464 2.0040003,2.266 1.447,1.9 2.423,4.01 3.12,6.292 0.418,1.394 0.645,2.824 0.662,4.27 0.07,4.323 -1.412,8.035 -4.4000003,11.12 -0.488,0.488 -1.01,0.94 -1.57,1.342 -0.296,0 -0.436,-0.227 -0.558,-0.436 -0.227,-0.383 -0.366,-0.82 -0.436,-1.255 -0.105,-0.523 -0.174,-1.046 -0.14,-1.586 v -0.244 c -0.024,-0.052 -0.285,-24.05199999 -0.181,-24.17499999 z"
     fill="#599636"
     id="path1212" />
  <path
     d="m 7.0870767,0.03440301 c -0.035,-0.07 -0.07,-0.017 -0.105,0.017 0.017,0.35 -0.105,0.662 -0.296,0.95999999 -0.21,0.296 -0.488,0.523 -0.767,0.767 -1.55,1.342 -2.77,2.963 -3.747,4.776 -1.29999998,2.44 -1.96999998,5.055 -2.15999998,7.808 -0.087,0.993 0.314,4.497 0.627,5.508 0.85399998,2.684 2.38799998,4.933 4.37499998,6.885 0.488,0.47 1.01,0.906 1.55,1.325 0.157,0 0.174,-0.14 0.21,-0.244 a 4.78,4.78 0 0 0 0.157,-0.68 l 0.35,-2.614 z"
     fill="#6cac48"
     id="path1214" />
  <path
     d="m 7.9410767,28.845403 c 0.035,-0.4 0.227,-0.732 0.436,-1.063 -0.21,-0.087 -0.366,-0.26 -0.488,-0.453 -0.105,-0.174 -0.192,-0.383 -0.26,-0.575 -0.244,-0.732 -0.296,-1.5 -0.366,-2.248 v -0.453 c -0.087,0.07 -0.105,0.662 -0.105,0.75 a 17.37,17.37 0 0 1 -0.314,2.353 c -0.052,0.314 -0.087,0.627 -0.28,0.906 0,0.035 0,0.07 0.017,0.122 0.314,0.924 0.4,1.865 0.453,2.824 v 0.35 c 0,0.418 -0.017,0.33 0.33,0.47 0.14,0.052 0.296,0.07 0.436,0.174 0.105,0 0.122,-0.087 0.122,-0.157 l -0.052,-0.575 v -1.604 c -0.017,-0.28 0.035,-0.558 0.07,-0.82 z"
     fill="#c2bfbf"
     id="path1216" />
</svg>
