<?xml version="1.0" encoding="UTF-8" standalone="no"?>
<svg
   height="32"
   viewBox="0 96 860 640"
   width="43"
   version="1.1"
   id="svg1389"
   sodipodi:docname="portfolio_hover.svg"
   inkscape:version="1.2.2 (b0a8486, 2022-12-01)"
   xmlns:inkscape="http://www.inkscape.org/namespaces/inkscape"
   xmlns:sodipodi="http://sodipodi.sourceforge.net/DTD/sodipodi-0.dtd"
   xmlns="http://www.w3.org/2000/svg"
   xmlns:svg="http://www.w3.org/2000/svg">
  <defs
     id="defs1393" />
  <sodipodi:namedview
     id="namedview1391"
     pagecolor="#ffffff"
     bordercolor="#000000"
     borderopacity="0.25"
     inkscape:showpageshadow="2"
     inkscape:pageopacity="0.0"
     inkscape:pagecheckerboard="0"
     inkscape:deskcolor="#d1d1d1"
     showgrid="false"
     inkscape:zoom="13.083333"
     inkscape:cx="20.025478"
     inkscape:cy="15.974522"
     inkscape:window-width="1920"
     inkscape:window-height="928"
     inkscape:window-x="0"
     inkscape:window-y="25"
     inkscape:window-maximized="1"
     inkscape:current-layer="svg1389" />
  <path
     d="M 60,736 Q 37,736 18.5,717.5 0,699 0,676 V 156 Q 0,133 18.5,114.5 37,96 60,96 h 281 l 60,60 h 339 q 23,0 41.5,18.5 Q 800,193 800,216 H 375 L 315,156 H 60 V 676 L 162,276 H 860 L 753,690 q -6,24 -22,35 -16,11 -41,11 z m 63,-60 H 695 L 779,336 H 207 Z m 0,0 84,-340 z M 60,216 v -60 z"
     id="path1387" />
</svg>
