<?xml version="1.0" encoding="UTF-8" standalone="no"?>
<svg
   height="44"
   viewBox="0 96 800 880"
   width="40"
   version="1.1"
   id="svg1565"
   sodipodi:docname="resume_hover.svg"
   inkscape:version="1.2.2 (b0a8486, 2022-12-01)"
   xmlns:inkscape="http://www.inkscape.org/namespaces/inkscape"
   xmlns:sodipodi="http://sodipodi.sourceforge.net/DTD/sodipodi-0.dtd"
   xmlns="http://www.w3.org/2000/svg"
   xmlns:svg="http://www.w3.org/2000/svg">
  <defs
     id="defs1569" />
  <sodipodi:namedview
     id="namedview1567"
     pagecolor="#ffffff"
     bordercolor="#000000"
     borderopacity="0.25"
     inkscape:showpageshadow="2"
     inkscape:pageopacity="0.0"
     inkscape:pagecheckerboard="0"
     inkscape:deskcolor="#d1d1d1"
     showgrid="false"
     inkscape:zoom="13.083333"
     inkscape:cx="20.025478"
     inkscape:cy="22.012739"
     inkscape:window-width="1920"
     inkscape:window-height="928"
     inkscape:window-x="0"
     inkscape:window-y="25"
     inkscape:window-maximized="1"
     inkscape:current-layer="svg1565" />
  <path
     d="M 0,271 V 96 h 175 v 60 H 60 v 115 z m 740,0 V 156 H 625 V 96 H 800 V 271 Z M 0,976 V 801 h 60 v 115 h 115 v 60 z m 625,0 V 916 H 740 V 801 h 60 V 976 Z M 180,796 H 620 V 276 H 180 Z m 0,60 q -24,0 -42,-18 -18,-18 -18,-42 V 276 q 0,-24 18,-42 18,-18 42,-18 h 440 q 24,0 42,18 18,18 18,42 v 520 q 0,24 -18,42 -18,18 -42,18 z M 290,446 H 510 V 386 H 290 Z m 0,120 H 510 V 506 H 290 Z m 0,120 H 510 V 626 H 290 Z M 180,796 V 276 Z"
     id="path1563" />
</svg>
