<?xml version="1.0" encoding="UTF-8" standalone="no"?>
<svg
   width="57.220093"
   height="64.10556"
   viewBox="0 0 5.8596951 6.5658117"
   preserveAspectRatio="xMidYMid"
   version="1.1"
   id="svg1687"
   sodipodi:docname="sqlite.svg"
   inkscape:version="1.2.2 (b0a8486, 2022-12-01)"
   xmlns:inkscape="http://www.inkscape.org/namespaces/inkscape"
   xmlns:sodipodi="http://sodipodi.sourceforge.net/DTD/sodipodi-0.dtd"
   xmlns="http://www.w3.org/2000/svg"
   xmlns:svg="http://www.w3.org/2000/svg">
  <sodipodi:namedview
     id="namedview1689"
     pagecolor="#ffffff"
     bordercolor="#000000"
     borderopacity="0.25"
     inkscape:showpageshadow="2"
     inkscape:pageopacity="0.0"
     inkscape:pagecheckerboard="0"
     inkscape:deskcolor="#d1d1d1"
     showgrid="false"
     inkscape:zoom="6.9384853"
     inkscape:cx="40.642876"
     inkscape:cy="33.292569"
     inkscape:window-width="1920"
     inkscape:window-height="928"
     inkscape:window-x="0"
     inkscape:window-y="25"
     inkscape:window-maximized="1"
     inkscape:current-layer="svg1687" />
  <defs
     id="defs1679">
    <linearGradient
       x1="2.983"
       y1="0.52999997"
       x2="2.983"
       y2="4.744"
       id="A"
       gradientUnits="userSpaceOnUse"
       gradientTransform="translate(-0.3475,-1.8847534e-4)">
      <stop
         stop-color="#97d9f6"
         offset="0%"
         id="stop1672" />
      <stop
         stop-color="#0f80cc"
         offset="92.024%"
         id="stop1674" />
      <stop
         stop-color="#0f80cc"
         offset="100%"
         id="stop1676" />
    </linearGradient>
  </defs>
  <path
     d="m 4.6125,0.28981152 h -4.113 c -0.276,0 -0.5,0.226 -0.5,0.5 V 5.3258115 c 0,0.276 0.226,0.5 0.5,0.5 h 2.71 c -0.03,-1.348 0.43,-3.964 1.404,-5.53999998 z"
     fill="#0f80cc"
     id="path1681" />
  <path
     d="m 4.4625,0.43681152 h -3.963 c -0.196,0 -0.355,0.16 -0.355,0.355 V 4.9968115 c 0.898,-0.345 2.245,-0.642 3.177,-0.628 a 28.93,28.93 0 0 1 1.142,-3.93199998 z"
     fill="url(#A)"
     id="path1683"
     style="fill:url(#A)" />
  <path
     d="m 5.5725,0.14181152 c -0.282,-0.25 -0.623,-0.15 -0.96,0.148 l -0.15,0.146 C 3.8865,1.0458115 3.3625,2.1778115 3.1865,3.0428115 a 2.38,2.38 0 0 1 0.148,0.426 l 0.022,0.1 0.022,0.102 c 0,0 -0.005,-0.02 -0.026,-0.08 l -0.014,-0.04 a 0.461,0.461 0 0 0 -0.009,-0.022 c -0.038,-0.087 -0.14,-0.272 -0.187,-0.352 a 8.789,8.789 0 0 0 -0.103,0.321 c 0.132,0.242 0.212,0.656 0.212,0.656 0,0 -0.007,-0.027 -0.04,-0.12 -0.03,-0.083 -0.176,-0.34 -0.21,-0.4 -0.06,0.22 -0.083,0.368 -0.062,0.404 0.04,0.07 0.08,0.2 0.115,0.324 a 7.52,7.52 0 0 1 0.132,0.666 l 0.005,0.062 a 6.11,6.11 0 0 0 0.015,0.75 c 0.026,0.313 0.075,0.582 0.137,0.726 l 0.042,-0.023 c -0.09,-0.284 -0.128,-0.655 -0.112,-1.084 0.025,-0.655 0.175,-1.445 0.454,-2.268 0.473,-1.253 1.125,-2.25099998 1.723,-2.72699998 -0.545,0.492 -1.282,2.08399998 -1.502,2.67299998 -0.247,0.66 -0.422,1.28 -0.528,1.873 0.182,-0.556 0.77,-0.796 0.77,-0.796 0,0 0.29,-0.356 0.626,-0.865 l -0.645,0.172 -0.208,0.092 c 0,0 0.53,-0.323 0.987,-0.47 0.627,-0.987 1.31,-2.38999998 0.622,-3.00199998"
     fill="#003b57"
     id="path1685" />
</svg>
